<svg xmlns="http://www.w3.org/2000/svg" xmlns:xlink="http://www.w3.org/1999/xlink" viewBox="0 0 344 344">
  <defs>
    <style>
      .cls-1 {
        clip-path: url(#clip-Canvas);
      }

      .cls-2 {
        fill: #999;
      }

      .cls-3 {
        fill: #fff;
      }

      .cls-4 {
        fill: rgba(0,0,0,0);
      }
    </style>
    <clipPath id="clip-Canvas">
      <rect width="344" height="344"/>
    </clipPath>
  </defs>
  <g id="Canvas" class="cls-1">
    <rect class="cls-4" width="344" height="344"/>
    <g id="Group_1" data-name="Group 1" transform="translate(31.25 31.25)">
      <circle id="Ellipse_1" data-name="Ellipse 1" class="cls-2" cx="140.75" cy="140.75" r="140.75"/>
      <path id="Shape_1" data-name="Shape 1" class="cls-3" d="M44.789,146.224c2.661-3.75,22.045-31.163,45.007-31.1,24.441.071,16.654,14.948,13.093,21.276s-26.572,36.621-32.733,58.1-3.946,30.262,12.275,44.189,34.079,22.913,67.1,22.913,54.972-12.57,67.92-22.913,24.083-18.051,12.275-23.731-46.4-22.441-58.919-52.372c0,0-1.635-7.268-4.91-9.82s-18.9-13.453.818-5.728c3.263,1.572,7.177,1.685-3.273-5.728s2.167-3.523,10.638.818c0,0,5.344.984-2.455-4.092s-12.278-11.47,6.547-2.455c0,0,35.437,5.721,53.19,7.365s38.422,6.279,30.278-10.638-11.429-23.765-45.007-27.823-53.953,1.384-60.555-9,6.663-20.994,17.185-27,31.285-7.8,36.824-8.183c0,0-8.27-15.6-40.1-11.456-15.768,1.585-31.06,15.173-36.006,30.278s-7.769,12.608-9,4.092c0,0-1.4-2.444-1.637,0s.947,12.018,0,12.275-7.176-6.44-9.82-6.547-1.438,1.538.818,4.092c0,0,9.2,7.471-11.456,1.637s-39.214,5.741-49.1,18-10.313,23.025-9.82,29.459A14.093,14.093,0,0,0,44.789,146.224Z" transform="translate(-7.965 -8.747)"/>
      <path id="Shape_3" data-name="Shape 3" class="cls-2" d="M174.384,122.594c-.422,4.5,6.588,8.161-19.64,10.638,0,0-3.062.523-9,8.183s-8.657,8.84-11.456,4.092-7.136,7.6,4.092,7.365c5.287.362,11.782-13.115,18-15.548s21.928.2,22.913-9C179.9,122.641,174.806,118.093,174.384,122.594Z" transform="translate(-23.814 -21.942)"/>
      <path id="Shape_2" data-name="Shape 2" class="cls-2" d="M147.418,121.424c6.826-2.73,9.485-8.981,14.73-6.547s-1.565,10.688-9,14.73-18.913,3.524-17.185-2.455S142.962,123.206,147.418,121.424Z" transform="translate(-24.67 -20.771)"/>
      <path id="Shape_4" data-name="Shape 4" class="cls-3" d="M195.494,102.96c-.419-1.055-1.049-8.276,3.273-9s6.547,3.273,6.547,3.273-2.309-10.546-9-7.365S195.912,104.015,195.494,102.96Z" transform="translate(-35.104 -16.219)"/>
      <path id="Shape_4_copy" data-name="Shape 4 copy" class="cls-3" d="M94.494,156.96c-.419-1.055-1.049-8.276,3.273-9s6.547,3.273,6.547,3.273-2.309-10.546-9-7.365S94.912,158.015,94.494,156.96Z" transform="translate(-16.754 -26.03)"/>
    </g>
  </g>
</svg>
